<?xml version="1.0" encoding="UTF-8" standalone="no"?>
<!DOCTYPE svg PUBLIC "-//W3C//DTD SVG 1.1//EN" "http://www.w3.org/Graphics/SVG/1.1/DTD/svg11.dtd">
<svg width="100%" height="100%" viewBox="0 0 195 7" version="1.1" xmlns="http://www.w3.org/2000/svg" xmlns:xlink="http://www.w3.org/1999/xlink" xml:space="preserve" xmlns:serif="http://www.serif.com/" style="fill-rule:evenodd;clip-rule:evenodd;stroke-linejoin:round;stroke-miterlimit:2;">
    <g transform="matrix(1,0,0,1,-37.6086,-304.937)">
        <g transform="matrix(1,0,0,1,209.132,308.796)">
            <path d="M0,0.391C-0.244,0.084 -0.601,-0.131 -0.843,-0.439C-1.802,-1.66 -3.5,-2.192 -4.877,-1.674C-5.671,-1.376 -6.181,-0.187 -5.638,0.309C-4.274,1.553 -2.651,2.323 -0.962,2.583C-0.066,2.523 0.884,2.09 0.961,1.693C1.106,0.945 0.337,0.814 0,0.391" style="fill-rule:nonzero;" fill="#fbaf00"/>
        </g>
        <g transform="matrix(1,0,0,1,221.169,311.17)">
            <path d="M0,-4.099C-0.652,-4.174 -1.354,-4.033 -1.621,-3.171C-1.82,-2.53 -1.642,-1.622 -1.179,-1.491C0.006,-1.152 0.785,-0.044 2.034,0.067C2.375,0.098 2.722,0.07 3.065,0.052C3.937,0.006 4.156,-0.54 3.981,-1.28C3.586,-2.949 1.861,-4.197 0,-4.099" style="fill-rule:nonzero;" fill="#fbaf00"/>
        </g>
        <g transform="matrix(-0.689829,0.723972,0.723972,0.689829,183.196,308.38)">
            <path d="M1.66,-4.464C2.171,-5.157 3.46,-4.906 3.782,-4.055C4.37,-2.498 3.503,-0.536 1.66,0.983C0.735,1.746 0.321,1.16 0.283,0.41C0.195,-1.337 0.023,-3.168 1.66,-4.464" style="fill-rule:nonzero;" fill="#fbaf00"/>
        </g>
        <g transform="matrix(1,0,0,1,127.599,309.579)">
            <path d="M0,-3.903C-0.886,-3.87 -1.628,-2.807 -1.3,-2.049C-0.922,-1.176 1.141,0.067 2.399,-0.01C2.507,-0.022 2.999,0.071 3.27,-0.133C3.807,-0.538 5.05,-1.096 4.421,-1.674C3.222,-2.778 1.869,-3.974 0,-3.903" style="fill-rule:nonzero;" fill="#fbaf00"/>
        </g>
        <g transform="matrix(1,0,0,1,42.2261,308.089)">
            <path d="M0,-1.371C-1.062,-1.855 -2.166,-2.254 -3.271,-2.632C-3.89,-2.844 -4.087,-2.21 -4.428,-1.895C-4.802,-1.551 -4.553,-1.296 -4.277,-1.052C-4.098,-0.893 -3.809,-0.636 -4.053,-0.466C-4.623,-0.069 -4.814,0.233 -4.176,0.747C-3.695,1.134 -3.164,1.347 -2.664,1.473C-1.893,1.254 -1.199,1.02 -0.488,0.868C-0.008,0.766 0.609,0.839 0.646,0.181C0.678,-0.394 0.606,-1.095 0,-1.371" style="fill-rule:nonzero;" fill="#fbaf00"/>
        </g>
        <g transform="matrix(1,0,0,1,191.99,308.487)">
            <path d="M0,0.411C-0.574,-0.044 -1.134,-0.498 -1.669,-1.01C-2.842,-2.133 -4.058,-1.979 -4.917,-0.692C-5.871,0.738 -4.275,1.039 -3.672,1.439C-2.875,1.969 -1.884,2.502 -0.811,2.298C-0.058,2.544 0.132,2.05 0.399,1.525C0.694,0.945 0.345,0.684 0,0.411" style="fill-rule:nonzero;" fill="#fbaf00"/>
        </g>
        <g transform="matrix(1,0,0,1,114.965,308.448)">
            <path d="M0,-0.856C-0.905,-1.54 -1.693,-2.356 -2.991,-2.402C-3.915,-2.434 -4.395,-2.005 -4.756,-1.345C-5.137,-0.647 -4.746,-0.084 -4.185,0.312C-3.344,0.907 -2.508,1.578 -1.34,1.264C-0.728,1.255 0,1.328 0.292,0.631C0.494,0.151 0.53,-0.457 0,-0.856" style="fill-rule:nonzero;" fill="#fbaf00"/>
        </g>
        <g transform="matrix(1,0,0,1,163.127,309.467)">
            <path d="M0,-3.394C-1.072,-3.651 -1.698,-3.335 -2.1,-2.331C-2.512,-1.301 -1.649,-0.915 -1.104,-0.61C-0.187,-0.095 0.851,0.257 1.949,0.198C2.514,0.185 3.078,0.179 3.271,-0.507C3.449,-1.137 3.075,-1.499 2.668,-1.912C1.913,-2.679 1.051,-3.142 0,-3.394" style="fill-rule:nonzero;" fill="#fbaf00"/>
        </g>
        <g transform="matrix(1,0,0,1,80.3501,308.164)">
            <path d="M0,-1.584C-0.16,-1.669 -0.234,-1.904 -0.385,-2.021C-1.47,-2.861 -3.348,-2.714 -3.75,-1.767C-4.391,-0.257 -3.107,1.277 -1.37,1.128C-1.106,1.034 -0.883,0.914 -0.646,0.879C0.068,0.774 0.965,0.838 1.209,0.02C1.479,-0.88 0.664,-1.23 0,-1.584" style="fill-rule:nonzero;" fill="#fbaf00"/>
        </g>
        <g transform="matrix(1,0,0,1,213.194,310.592)">
            <path d="M0,-3.897C-0.617,-3.674 -1.305,-3.474 -1.616,-2.764C-1.937,-2.033 -1.274,-1.614 -0.924,-1.246C0.284,0.027 1.995,-0.195 3.542,0.02C3.88,0.068 3.937,-0.361 3.909,-0.675C3.813,-1.799 1.209,-3.965 0,-3.897" style="fill-rule:nonzero;" fill="#fbaf00"/>
        </g>
        <g transform="matrix(1,0,0,1,93.9238,309.497)">
            <path d="M0,-3.873C-0.576,-3.899 -1.192,-3.745 -1.384,-3.218C-1.574,-2.693 -1.596,-2.029 -1.127,-1.532C-0.318,-0.674 0.562,0.026 1.695,-0.237C2.477,-0.321 3.167,-0.171 3.544,-0.916C3.792,-1.405 3.624,-1.883 3.33,-2.153C2.386,-3.019 1.367,-3.811 0,-3.873" style="fill-rule:nonzero;" fill="#fbaf00"/>
        </g>
        <g transform="matrix(1,0,0,1,139.503,308.154)">
            <path d="M0,-0.804C-0.808,-1.483 -1.844,-1.628 -2.76,-2.044C-3.327,-2.302 -3.962,-2.15 -4.368,-1.42C-4.809,-0.628 -4.56,0.014 -3.981,0.395C-2.962,1.065 -1.786,1.417 -0.556,1.476C0.135,1.498 0.638,1.164 0.849,0.561C1.105,-0.173 0.447,-0.427 0,-0.804" style="fill-rule:nonzero;" fill="#fbaf00"/>
        </g>
        <g transform="matrix(1,0,0,1,172.95,309.651)">
            <path d="M0,-2.789C-0.437,-2.83 -0.866,-2.775 -1.308,-2.964C-1.62,-3.097 -2.187,-3.648 -2.359,-2.875C-2.495,-2.263 -3.307,-1.795 -2.678,-0.977C-1.741,0.245 -0.344,0.448 0.959,0.742C1.48,0.859 2.35,0.473 1.984,-0.595C1.752,-1.667 1.356,-2.663 0,-2.789" style="fill-rule:nonzero;" fill="#fbaf00"/>
        </g>
        <g transform="matrix(1,0,0,1,156.242,307.833)">
            <path d="M0,-0.908C-0.392,-1.037 -0.694,-1.449 -1.029,-1.743C-2.105,-2.687 -2.829,-2.406 -3.498,-1.188C-4.075,-0.137 -3.411,0.451 -2.823,0.97C-2.246,1.48 -1.471,1.779 -0.68,1.491C0.24,1.623 0.887,1.436 1.117,0.427C1.349,-0.594 0.694,-0.68 0,-0.908" style="fill-rule:nonzero;" fill="#fbaf00"/>
        </g>
        <g transform="matrix(-0.910748,0.412962,0.412962,0.910748,123.175,308.866)">
            <path d="M1.389,-4.021C2.368,-4.385 2.875,-3.66 3.197,-2.985C3.702,-1.925 2.895,-0.514 1.389,0.011C0.743,0.02 -0.243,-0.031 -0.807,-0.812C-1.322,-1.526 0.121,-3.551 1.389,-4.021" style="fill-rule:nonzero;" fill="#fbaf00"/>
        </g>
        <g transform="matrix(1,0,0,1,148.031,307.956)">
            <path d="M0,-0.947C-0.605,-1.593 -1.397,-1.801 -2.171,-2.1C-2.726,-2.316 -3.207,-2.47 -3.587,-1.865C-3.949,-1.29 -4.337,-0.752 -3.757,-0.035C-2.968,0.939 -1.954,1.393 -0.663,1.523C-0.152,1.205 0.678,1.212 0.925,0.316C1.169,-0.569 0.363,-0.559 0,-0.947" style="fill-rule:nonzero;" fill="#fbaf00"/>
        </g>
        <g transform="matrix(1,0,0,1,86.5527,309.085)">
            <path d="M0,-3.41C-1.308,-3.49 -1.57,-3.004 -1.548,-1.721C-1.602,-1.232 -1.178,-0.862 -0.65,-0.514C0.032,-0.065 0.816,-0.38 1.492,-0.172C2.313,0.08 2.555,-0.524 2.923,-0.921C3.34,-1.369 2.856,-1.751 2.678,-2.117C2.125,-3.247 1.176,-3.339 0,-3.41" style="fill-rule:nonzero;" fill="#fbaf00"/>
        </g>
        <g transform="matrix(1,0,0,1,56.1855,308.289)">
            <path d="M0,-2.133C-0.306,-2.281 -0.649,-2.357 -0.981,-2.446C-1.597,-2.612 -2.381,-2.962 -2.709,-2.212C-3.039,-1.458 -3.027,-0.577 -2.354,0.145C-1.812,0.729 -1.181,0.829 -0.467,0.684C0.605,0.766 1.539,0.35 1.723,-0.686C1.929,-1.847 0.702,-1.792 0,-2.133" style="fill-rule:nonzero;" fill="#fbaf00"/>
        </g>
        <g transform="matrix(1,0,0,1,48.3369,308.35)">
            <path d="M0,-2.369C-0.094,-2.396 -0.187,-2.431 -0.276,-2.471C-2.458,-3.439 -2.67,-3.306 -2.57,-1.023C-2.738,-0.725 -2.676,-0.491 -2.465,-0.214C-1.487,1.07 -0.315,0.319 0.797,0.124C1.395,0.02 1.849,-0.39 1.822,-0.974C1.771,-2.083 0.792,-2.14 0,-2.369" style="fill-rule:nonzero;" fill="#fbaf00"/>
        </g>
        <g transform="matrix(1,0,0,1,61.3301,308.412)">
            <path d="M0,-2.726C-0.322,-2.487 -0.653,-2.241 -0.461,-1.73C-0.45,-0.767 0.075,0.126 0.875,0.347C1.697,0.577 2.691,0.241 3.447,-0.372C3.849,-0.697 3.891,-1.156 3.743,-1.596C3.436,-2.514 0.774,-3.303 0,-2.726" style="fill-rule:nonzero;" fill="#fbaf00"/>
        </g>
        <g transform="matrix(1,0,0,1,231.869,309.024)">
            <path d="M0,0.329C-0.428,-0.264 -0.779,-1.023 -1.554,-1.401C-2.641,-1.932 -3.677,-1.872 -4.248,-0.857C-4.825,0.171 -3.781,0.694 -3.159,1.372C-2.344,2.261 -1.636,0.824 -0.888,1.468C-0.144,1.445 0.525,1.056 0,0.329" style="fill-rule:nonzero;" fill="#fbaf00"/>
        </g>
        <g transform="matrix(-0.96342,0.267995,0.267995,0.96342,199.492,310.274)">
            <path d="M1.683,-3.318C2.458,-3.675 2.843,-2.725 3.202,-2.226C3.512,-1.794 2.266,-0.043 1.683,0.063C0.66,0.249 -1.181,-0.59 -1.089,-1.278C-0.881,-2.836 0.649,-2.839 1.683,-3.318" style="fill-rule:nonzero;" fill="#fbaf00"/>
        </g>
        <g transform="matrix(-0.952581,0.304284,0.304284,0.952581,72.0619,308.339)">
            <path d="M0.644,-3.776C2.015,-4.204 2.052,-2.988 2.254,-2.303C2.722,-0.722 1.796,-0.277 0.644,-0.454C-0.665,0.102 -0.897,-0.985 -1.209,-1.457C-1.615,-2.075 -0.404,-3.45 0.644,-3.776" style="fill-rule:nonzero;" fill="#fbaf00"/>
        </g>
        <g transform="matrix(-0.99986,-0.0167394,-0.0167394,0.99986,103.907,308.519)">
            <path d="M0.858,-2.916C2.6,-3.122 2.273,-1.993 2.342,-1.447C2.465,-0.478 1.745,0.257 0.858,0.191C-0.175,0.114 -1.754,-0.511 -1.64,-1.362C-1.478,-2.568 0.025,-2.937 0.858,-2.916" style="fill-rule:nonzero;" fill="#fbaf00"/>
        </g>
    </g>
</svg>
