<svg width="100%" height="100%" viewBox="0 0 195 6" version="1.1" xmlns="http://www.w3.org/2000/svg" xmlns:xlink="http://www.w3.org/1999/xlink" xml:space="preserve" xmlns:serif="http://www.serif.com/" style="fill-rule:evenodd;clip-rule:evenodd;stroke-linejoin:round;stroke-miterlimit:2;">
    <g transform="matrix(1,0,0,1,-37.6084,-49.3056)">
        <g transform="matrix(1,0,0,1,148.53,52.4572)">
            <path d="M0,0.057C-0.079,-0.007 -0.224,-0.193 -0.289,-0.164C-0.468,-0.081 -0.682,0.058 -0.755,0.24C-0.839,0.45 -0.617,0.465 -0.475,0.457C-0.271,0.447 -0.039,0.471 0,0.057M-42.273,0.508C-42.308,0.461 -42.351,0.37 -42.375,0.376C-42.474,0.4 -42.567,0.453 -42.662,0.495C-42.624,0.537 -42.58,0.62 -42.549,0.615C-42.455,0.598 -42.365,0.547 -42.273,0.508M-57.47,0.072C-57.466,0.039 -57.517,-0.002 -57.544,-0.04C-57.578,-0.009 -57.635,0.017 -57.639,0.051C-57.642,0.085 -57.591,0.126 -57.564,0.164C-57.531,0.134 -57.474,0.107 -57.47,0.072M-66.389,0.904C-66.406,0.808 -66.446,0.719 -66.479,0.627C-66.511,0.664 -66.574,0.705 -66.57,0.737C-66.56,0.825 -66.522,0.91 -66.494,0.996C-66.457,0.965 -66.385,0.925 -66.389,0.904M-67.046,0.153C-67.042,0.119 -67.093,0.078 -67.12,0.041C-67.154,0.071 -67.212,0.098 -67.215,0.132C-67.219,0.166 -67.168,0.207 -67.141,0.245C-67.107,0.215 -67.049,0.188 -67.046,0.153M-77.271,1.356L-77.366,1.227C-77.404,1.264 -77.468,1.299 -77.471,1.339C-77.474,1.379 -77.415,1.424 -77.383,1.467C-77.346,1.43 -77.308,1.393 -77.271,1.356M-84.848,-0.576C-84.806,-0.879 -84.979,-0.968 -85.313,-0.996C-85.399,-0.92 -85.623,-0.821 -85.673,-0.657C-85.766,-0.355 -85.514,-0.285 -85.307,-0.263C-85.096,-0.242 -84.889,-0.284 -84.848,-0.576M-87.521,-0.991C-87.667,-0.99 -87.813,-0.919 -87.958,-0.879C-87.853,-0.703 -87.749,-0.528 -87.625,-0.322C-87.436,-0.44 -87.242,-0.485 -87.203,-0.599C-87.1,-0.893 -87.306,-0.992 -87.521,-0.991M-87.179,0.696C-87.206,0.654 -87.232,0.611 -87.259,0.569C-87.296,0.6 -87.357,0.627 -87.363,0.664C-87.368,0.701 -87.316,0.747 -87.29,0.789C-87.252,0.758 -87.216,0.727 -87.179,0.696M-90.042,-0.852C-89.783,-0.999 -89.524,-1.145 -89.266,-1.292C-89.548,-1.469 -89.827,-1.566 -90.036,-1.173C-90.078,-1.093 -90.042,-0.961 -90.042,-0.852M-96.862,0.739C-96.946,0.69 -97.026,0.629 -97.115,0.599C-97.143,0.59 -97.194,0.663 -97.234,0.699C-97.151,0.746 -97.069,0.794 -96.986,0.841C-96.945,0.807 -96.903,0.773 -96.862,0.739M-101.758,-0.151C-101.793,-0.197 -101.835,-0.285 -101.865,-0.281C-101.964,-0.266 -102.059,-0.217 -102.156,-0.181C-102.12,-0.134 -102.079,-0.046 -102.049,-0.05C-101.95,-0.066 -101.854,-0.115 -101.758,-0.151M83.525,-1.826C83.493,-0.734 82.384,-0.084 81.465,-0.213C79.875,-0.436 78.336,-0.301 76.755,-0.184C73.056,0.09 69.343,0.122 65.637,0.288C59.646,0.558 53.659,0.929 47.666,1.115C44.537,1.212 41.4,0.941 38.268,0.952C32.412,0.971 26.555,0.981 20.703,1.173C16.675,1.306 12.653,1.238 8.633,1.107C7.128,1.058 5.632,1.748 4.134,1.135C4.133,1.136 4.114,1.053 4.114,1.053L4.117,1.152C2.762,1.65 1.153,1.793 -0.009,1.473C-2.376,0.821 -4.606,1.386 -6.892,1.41C-7.233,1.414 -7.514,1.346 -7.694,0.936C-8.054,0.121 -8.481,0.221 -8.877,0.917C-9.087,1.287 -9.472,1.431 -9.732,1.299C-11.919,0.193 -14.057,1.695 -16.206,1.376C-16.666,1.308 -17.643,1.814 -17.598,0.519C-17.596,0.473 -17.893,0.343 -18.032,0.37C-20.993,0.954 -23.983,0.847 -26.965,0.793C-27.8,0.778 -28.502,1.929 -29.394,1.081C-29.416,1.1 -29.437,1.119 -29.458,1.137C-29.449,1.123 -29.439,1.11 -29.434,1.099L-29.437,1.1C-30.206,0.399 -31.009,0.661 -31.823,0.983C-33.406,1.61 -35.01,1.921 -36.591,1.034C-37.47,0.54 -38.299,1.13 -39.138,1.147C-40.722,1.181 -42.297,1.085 -43.873,1.021C-44.55,0.993 -44.872,1.268 -45.026,1.928C-45.022,1.929 -45.018,1.931 -45.014,1.932C-45.02,1.935 -45.025,1.94 -45.031,1.943L-45.03,1.929C-45.352,1.24 -45.856,1.225 -46.505,1.227C-49.225,1.233 -51.942,1.728 -54.626,1.666C-57.397,1.6 -60.185,2.153 -62.94,1.564C-64.115,1.312 -65.061,2.675 -66.269,2.046C-67.262,1.528 -68.646,2.132 -69.343,0.716C-69.388,0.623 -69.785,0.615 -69.795,0.65C-70.293,2.291 -71.519,0.807 -72.188,1.341C-73.068,2.042 -74.105,1.956 -75.041,2.329C-75.793,2.629 -76.404,2.012 -77.078,1.91C-78.275,1.729 -79.321,1.316 -80.753,2.129C-81.836,2.745 -83.845,2.797 -85.5,2.122C-86.129,1.866 -87.069,1.341 -87.96,1.973C-89.241,2.881 -90.351,1.479 -91.584,1.464C-91.873,1.46 -92.025,1.133 -91.8,0.788C-91.323,0.056 -92.024,0.474 -92.155,0.336C-92.87,1.853 -94.282,0.927 -95.266,1.443C-96.617,2.153 -97.705,2.149 -99.183,1.344C-100.692,0.522 -102.569,0.381 -104.399,1.281C-105.618,1.88 -107.09,1.873 -108.458,2.046C-109.254,2.146 -110.071,3.24 -110.736,2.519C-111.366,1.836 -110.184,1.074 -110.242,0.25C-110.275,-0.219 -110.559,-0.693 -109.954,-0.94C-108.436,-1.557 -106.692,-2.643 -105.32,-2.064C-103.308,-1.215 -101.429,-2.338 -99.575,-1.76C-98.133,-1.311 -96.977,-2.532 -95.633,-2.365C-94.83,-2.265 -93.669,-2.919 -93.538,-1.138C-93.504,-0.676 -92.813,-0.121 -92.281,-0.798C-91.277,-2.074 -90.636,-2.212 -89.265,-1.292C-89.262,-1.294 -89.259,-1.296 -89.256,-1.297C-87.669,-2.127 -85.998,-1.461 -84.369,-1.62C-82.803,-1.773 -81.273,-1.225 -79.633,-1.318C-77.78,-1.424 -75.924,-2.205 -74.065,-1.72C-71.689,-1.1 -69.288,-1.935 -67.03,-1.661C-65.05,-1.42 -63.165,-1.83 -61.296,-1.917C-59.94,-1.979 -58.518,-0.822 -57.203,-1.958C-55.454,-0.469 -54.018,-2.882 -52.398,-2.456C-50.857,-2.05 -49.435,-2.679 -47.958,-2.765C-41.481,-3.146 -34.99,-2.986 -28.535,-2.488C-25.144,-2.226 -21.701,-2.466 -18.384,-1.797C-16.256,-1.367 -14.241,-2.051 -12.21,-1.7C-9.031,-1.151 -5.789,-1.911 -2.693,-1.294C-0.944,-0.945 0.541,-1.805 2.165,-1.502C3.859,-1.185 5.527,-1.539 7.214,-1.82C8.469,-2.03 9.788,-1.848 11.072,-1.745C13.757,-1.529 16.424,-1.966 19.109,-1.948C23.894,-1.915 28.68,-2.286 33.467,-2.364C35.769,-2.401 38.09,-2.238 40.382,-2.174C43.953,-2.074 47.558,-2.461 51.156,-2.452C53.038,-2.447 54.92,-2.54 56.802,-2.603C62.167,-2.785 67.531,-3.009 72.896,-3.14C74.625,-3.183 76.371,-3.11 78.082,-2.858C79.025,-2.718 79.896,-2.606 80.801,-2.96C81.051,-3.058 81.346,-3.039 81.619,-3.029C82.456,-2.996 83.557,-2.892 83.525,-1.826" style="fill-rule:nonzero;" fill="#fbaf00" />
        </g>
    </g>
</svg>
