<svg viewBox="0 0 195 12" version="1.1" xmlns="http://www.w3.org/2000/svg" xmlns:xlink="http://www.w3.org/1999/xlink" xml:space="preserve" xmlns:serif="http://www.serif.com/" style="fill-rule:evenodd;clip-rule:evenodd;stroke-linejoin:round;stroke-miterlimit:2;" preserveAspectRatio="none">
    <g transform="matrix(1,0,0,1,-37.6085,-139.313)">
        <g transform="matrix(1,0,0,1,228.402,141.662)">
            <path d="M0,6.642C-0.386,6.481 -0.734,6.546 -1.182,6.693C-0.72,7.145 -0.372,7.098 0,6.642M3.654,6.717C2.711,7.808 2.4,7.898 1.889,7.298L1.886,7.303C1.205,7.946 0.688,8.495 -0.488,7.849C-1.334,7.384 -2.425,8.487 -3.515,8.422C-3.904,8.399 -4.307,8.465 -4.692,8.545C-5.68,8.75 -5.866,8.369 -5.274,7.411C-7.051,8.007 -8.676,9.092 -10.173,8.936C-13.013,8.642 -15.815,9.411 -18.678,8.71C-21.592,7.997 -24.042,6.589 -26.44,4.934C-27.102,4.478 -28.153,4.868 -28.603,3.936C-29.322,4.665 -30.43,4.611 -31.187,5.146C-33.085,6.484 -35.133,7.359 -37.387,7.833C-39.655,8.309 -41.83,9.238 -44.222,9.085C-47.088,8.902 -49.969,8.837 -52.555,7.326C-52.628,7.494 -52.702,7.662 -52.775,7.829C-52.915,7.7 -53.055,7.57 -53.195,7.44C-53.035,7.352 -52.874,7.265 -52.714,7.177C-52.915,6.88 -53.203,6.742 -53.548,6.707C-53.567,6.953 -53.576,7.545 -53.879,7.118C-55.362,5.028 -56.86,6.799 -58.229,7.11C-60.379,7.6 -62.327,8.681 -64.649,8.845C-66.985,9.009 -69.369,9.448 -71.685,9.508C-75.055,9.597 -78.264,8.488 -80.625,5.778C-81.253,5.059 -81.582,5.003 -82.622,5.352C-83.766,5.737 -84.786,6.461 -86.07,6.647C-88.59,7.011 -90.905,8.227 -93.479,8.62C-98.272,9.352 -102.7,8.902 -106.582,5.706C-106.807,5.52 -106.979,5.321 -107.347,5.477C-110.879,6.98 -114.614,7.693 -118.354,8.456C-121.561,9.111 -124.748,9.686 -128.016,9.401C-131.08,9.133 -133.872,8.124 -136.044,5.805C-136.64,5.169 -137.101,5.21 -137.934,5.509C-140.596,6.464 -143.311,7.235 -146.163,7.551C-148.136,7.77 -150.155,8.179 -152.09,8.185C-155.034,8.196 -158.262,8.903 -160.811,6.531C-161.191,6.177 -161.569,6.27 -161.879,6.527C-163.269,7.679 -165.098,7.641 -166.67,8.306C-167.117,8.495 -168.074,9.033 -168.567,7.983C-168.645,7.817 -168.844,7.878 -169.018,8.272C-169.394,9.127 -170.112,9.253 -170.591,8.203C-171.375,7.882 -172.116,8.3 -172.867,8.385C-175.361,8.67 -177.723,7.77 -180.162,7.66C-182.991,7.533 -185.419,6.272 -187.902,5.122C-188.384,4.899 -188.829,4.526 -189.415,4.579C-188.651,5.36 -187.564,5.53 -186.655,6.038C-186.319,6.225 -185.974,6.333 -185.86,6.741C-187.538,6.749 -188.721,5.552 -190.141,4.933C-190.322,4.854 -190.542,4.548 -190.273,4.366C-190.126,4.266 -189.821,4.401 -189.587,4.431C-189.985,3.823 -190.99,3.585 -190.76,2.497C-189.102,3.257 -187.468,3.905 -185.93,4.733C-183.383,6.104 -180.588,6.291 -177.826,6.624C-173.559,7.139 -169.407,6.477 -165.338,5.182C-164.685,4.975 -164.053,4.692 -163.426,4.411C-162.886,4.169 -162.613,3.837 -162.773,3.13C-162.967,2.273 -162.813,1.325 -161.923,0.949C-160.93,0.529 -159.824,0.774 -158.938,1.296C-158.277,1.686 -158.46,2.532 -158.704,3.197C-159.168,4.466 -158.833,5.299 -157.501,5.462C-155.054,5.762 -152.617,6.02 -150.121,5.506C-147.92,5.052 -145.621,5.092 -143.426,4.529C-141.912,4.141 -140.436,3.602 -138.94,3.14C-138.229,2.92 -138.092,2.496 -138.288,1.785C-138.487,1.065 -138.01,0.442 -137.456,0.205C-136.704,-0.117 -135.815,-0.23 -135.038,0.264C-134.383,0.68 -134.407,1.268 -134.619,1.972C-135.076,3.489 -134.08,4.309 -132.965,4.914C-130.018,6.515 -126.79,7.033 -123.537,6.62C-119.173,6.064 -114.803,5.41 -110.592,4.022C-109.375,3.621 -107.638,3.635 -108.626,1.441C-108.862,0.917 -107.39,-0.431 -106.704,-0.253C-105.851,-0.03 -105.037,0.475 -104.971,1.531C-104.784,4.572 -104.557,4.781 -101.702,5.727C-97.357,7.166 -93.106,6.309 -88.869,5.314C-87.111,4.901 -85.404,4.256 -83.694,3.659C-82.732,3.322 -82.011,2.704 -82.539,1.553C-82.86,0.854 -82.51,0.415 -82.051,0.195C-80.99,-0.314 -79.894,-0.339 -78.993,0.59C-78.572,1.025 -78.386,1.429 -78.789,2.136C-79.323,3.077 -79.141,4.104 -78.271,4.913C-76.767,6.312 -74.845,6.569 -72.958,6.852C-69.19,7.416 -65.516,6.552 -61.834,5.956C-59.841,5.634 -58.028,4.878 -56.463,3.498C-55.976,3.067 -55.943,2.863 -56.13,2.306C-56.44,1.382 -57.357,0.176 -56.266,-0.49C-55.413,-1.011 -54.098,-1.057 -53.078,-0.128C-52.8,0.124 -52.226,0.217 -52.035,0.576C-51.797,1.022 -51.433,1.557 -52.014,2.09C-53.04,3.031 -52.997,3.976 -51.958,4.781C-50.007,6.294 -47.757,6.518 -45.372,6.696C-41.25,7.003 -37.603,5.425 -33.869,4.203C-32.457,3.741 -31.192,2.777 -29.917,1.954C-29.085,1.416 -29.307,0.697 -29.875,0.056C-30.2,-0.312 -30.484,-1.178 -30.258,-1.109C-29.215,-0.793 -29.771,-3.044 -28.227,-2.128C-27.211,-1.525 -26.197,-1.136 -25.656,-0.025C-25.575,0.141 -25.465,0.388 -25.529,0.515C-26.391,2.22 -25.058,2.884 -24.061,3.695C-21.686,5.626 -18.963,6.314 -15.926,6.62C-13.991,6.814 -12.273,6.728 -10.396,6.367C-9.241,6.144 -7.947,6.486 -6.649,6.225C-5.539,6.001 -4.46,5.39 -3.256,5.632C-1.597,5.965 -0.157,5.535 1.159,4.444C1.729,3.971 2.111,4.486 2.129,5.044C2.161,6.051 2.743,6.513 3.654,6.717" style="fill-rule:nonzero;" fill="#fbaf00" />
        </g>
    </g>
</svg>
