<?xml version="1.0" encoding="UTF-8" standalone="no"?>
<!DOCTYPE svg PUBLIC "-//W3C//DTD SVG 1.1//EN" "http://www.w3.org/Graphics/SVG/1.1/DTD/svg11.dtd">
<svg width="100%" height="100%" viewBox="0 0 195 13" version="1.1" xmlns="http://www.w3.org/2000/svg" xmlns:xlink="http://www.w3.org/1999/xlink" xml:space="preserve" xmlns:serif="http://www.serif.com/" style="fill-rule:evenodd;clip-rule:evenodd;stroke-linejoin:round;stroke-miterlimit:2;">
    <g transform="matrix(1,0,0,1,-37.6086,-325.052)">
        <g transform="matrix(1,0,0,1,215.27,326.806)">
            <path d="M0,9.514C-0.101,9.377 -0.199,9.424 -0.295,9.524C-0.197,9.52 -0.098,9.517 0,9.514M-28.949,3.661C-29.049,3.572 -29.148,3.482 -29.248,3.393C-29.275,3.448 -29.302,3.501 -29.329,3.556C-29.202,3.591 -29.076,3.626 -28.949,3.661M16.786,10.667C15.337,11.578 14.517,10.307 13.608,9.586C13.175,9.243 12.748,8.991 12.256,8.8L12.285,8.817C10.723,8.515 10.178,6.765 8.773,6.232C8.377,6.081 7.976,5.315 7.756,5.58C7.2,6.255 6.199,6.061 5.762,6.859C5.413,7.497 4.963,8.063 4.702,8.772C4.023,10.616 3.321,10.896 1.437,10.315C0.811,10.121 -0.221,10.944 -0.332,9.541C-0.644,9.506 -0.985,9.316 -0.79,9.031C-0.386,8.441 -0.994,8.182 -1.147,8.188C-2.62,8.242 -2.792,7.078 -3.116,6.069C-3.448,5.037 -5.298,3.501 -5.831,3.925C-6.739,4.651 -7.853,5.458 -7.828,6.709C-7.806,7.791 -8.503,7.929 -9.047,8.186C-9.926,8.599 -12.629,7.574 -13.31,6.719C-14.492,6.365 -14.477,4.845 -15.564,4.321C-16.022,4.101 -16.083,3.942 -16.523,4.395C-17.618,5.523 -18.91,6.449 -20.016,7.566C-20.498,8.051 -20.927,7.702 -21.347,7.738C-22.559,7.839 -23.803,7.979 -24.977,7.445L-24.982,7.439C-25.332,6.795 -26.004,6.507 -26.486,6.009C-26.416,6.448 -26.469,6.778 -26.962,6.348C-27.668,5.734 -28.3,5.028 -29.017,4.429C-29.957,3.644 -30.884,3.451 -31.786,4.581C-33.119,6.254 -35.033,7.493 -35.445,9.844C-35.514,10.24 -35.904,10.144 -36.17,10.188C-37.015,10.326 -39.153,9.13 -39.474,8.279C-40.127,6.547 -41.346,5.297 -42.67,4.111C-43.237,3.603 -43.697,3.547 -44.339,4.031C-44.976,4.509 -45.557,5.033 -46.039,5.651C-48.798,9.19 -52.125,8.781 -54.669,5.029C-55.027,4.501 -55.517,4 -55.735,3.462C-56.408,1.798 -57.406,2.239 -58.286,3.005C-59.903,4.415 -61.832,5.42 -62.991,7.443C-64.049,9.289 -66.443,9.079 -67.69,7.199C-68.509,5.961 -69.529,4.928 -70.558,3.897C-71.057,3.397 -71.328,3.165 -71.889,4.137C-72.936,5.95 -74.354,7.41 -76.611,7.934C-80.342,8.8 -82.645,7.21 -84.342,4.006C-85.158,2.464 -86.286,2.231 -87.36,3.53C-88.397,4.784 -90.016,5.672 -90.182,7.612C-90.25,8.417 -90.672,8.641 -91.604,8.528C-94.346,8.197 -95.63,6.146 -97.023,4.159C-97.248,3.837 -97.437,3.484 -97.695,3.195C-98.824,1.939 -99.034,1.985 -100.177,3.165C-101.405,4.433 -102.772,5.562 -103.966,6.859C-104.474,7.41 -105.002,7.401 -105.545,7.325C-107.716,7.02 -109.314,5.72 -110.681,4.063C-110.929,3.762 -111.211,3.475 -111.388,3.132C-112.209,1.545 -113.203,1.202 -114.79,2.229C-116.225,3.158 -117.633,4.003 -118.331,5.692C-118.819,6.876 -119.872,7.597 -120.654,8.541C-121.02,8.985 -121.349,8.655 -121.694,8.519C-123.686,7.729 -124.679,5.87 -125.896,4.29C-127.943,1.632 -127.889,1.602 -130.339,3.782C-131.116,4.474 -131.696,5.285 -132.263,6.173C-133.476,8.073 -135.501,8.656 -137.733,7.549C-139.637,6.606 -141.151,5.114 -142.446,3.415C-143.097,2.563 -143.659,2.179 -144.728,2.905C-146.354,4.011 -148.022,5.082 -148.878,6.927C-150.004,9.352 -151.998,9.604 -153.757,7.512C-154.959,6.082 -156.112,4.628 -157.122,3.053C-157.525,2.424 -157.883,2.19 -158.575,2.872C-160.062,4.342 -161.662,5.695 -163.228,7.079C-163.576,7.387 -163.857,7.568 -163.923,8.194C-164.076,9.642 -164.98,10.034 -166.329,9.466C-167.317,9.05 -167.995,8.361 -168.381,7.303C-168.894,5.897 -169.761,4.696 -170.745,3.593C-171.254,3.022 -171.488,2.998 -171.953,3.84C-172.863,5.486 -173.83,7.121 -175.483,8.237C-176.254,8.757 -176.652,8.45 -177.098,8.068C-177.593,7.642 -177.891,6.918 -177.438,6.388C-175.697,4.343 -174.305,1.992 -172.336,0.157C-171.369,-0.745 -170.066,-0.449 -168.679,0.707C-167.476,1.71 -166.816,3.115 -165.999,4.398C-165.504,5.172 -165.126,5.354 -164.496,4.559C-163.015,2.694 -161.125,1.285 -159.307,-0.202C-157.589,-1.607 -156.358,-1.345 -154.875,0.442C-153.901,1.615 -153.086,2.899 -152.137,4.084C-151.599,4.756 -151.268,4.901 -150.563,4.22C-148.63,2.355 -146.574,0.631 -144.326,-0.836C-142.696,-1.899 -140.858,-1.343 -139.615,0.24C-138.104,2.161 -136.478,4.019 -134.368,5.32C-133.748,3.965 -132.53,3.118 -131.63,2.001C-130.953,1.163 -130.218,0.355 -129.679,-0.569C-128.957,-1.807 -127.969,-1.903 -126.974,-1.266C-125.553,-0.356 -124.045,0.523 -123.352,2.263C-122.98,3.196 -122.26,4.016 -121.505,4.463C-120.466,5.08 -120.042,3.641 -119.476,3.119C-117.811,1.587 -116.062,0.192 -114.232,-1.112C-112.939,-2.033 -111.152,-2.016 -110.252,-0.72C-108.889,1.242 -106.78,2.378 -105.404,4.283C-105.092,4.713 -104.849,4.675 -104.487,4.296C-103.334,3.086 -102.012,2.021 -100.997,0.704C-99.347,-1.435 -98.322,-1.289 -95.682,0.596C-95.108,1.005 -94.706,1.688 -94.279,2.285C-93.002,4.069 -92.744,4.135 -91.057,2.908C-89.326,1.648 -87.589,0.396 -85.893,-0.91C-85.351,-1.328 -84.916,-1.342 -84.3,-1.094C-82.951,-0.553 -81.861,0.316 -80.889,1.38C-79.738,2.64 -78.567,3.881 -77.441,5.163C-77.076,5.578 -77.025,5.176 -76.818,5.035C-75.018,3.824 -73.905,1.917 -72.461,0.36C-71.294,-0.899 -70.322,-0.593 -69.312,0.016C-67.745,0.962 -66.197,2.003 -65.369,3.803C-65.083,4.424 -64.701,4.315 -64.206,3.935C-62.241,2.425 -60.207,1.01 -58.266,-0.53C-56.333,-2.064 -55.613,-1.83 -53.601,-0.177C-52.223,0.953 -51.339,2.53 -50.23,3.902C-49.672,4.593 -49.348,4.682 -48.657,3.995C-47.271,2.62 -45.774,1.359 -44.276,0.111C-43.239,-0.753 -41.56,-0.241 -40.274,1.321C-39.229,2.59 -38.234,3.905 -37.259,5.231C-36.698,5.993 -36.303,5.613 -35.863,5.133C-34.476,3.618 -33.03,2.216 -31.263,1.113C-29.51,0.019 -29.04,-0.174 -27.309,0.9C-25.539,1.996 -24.241,3.65 -22.713,5.031C-22.154,5.536 -21.916,5.816 -21.232,5.015C-20.008,3.581 -18.667,2.151 -17.109,1.15C-15.796,0.306 -14.266,-0.696 -12.526,1.052C-11.786,1.795 -10.448,1.968 -10.112,3.607C-9.137,2.04 -7.585,1.838 -6.382,1.003C-4.059,-0.608 -1.764,0.438 -0.464,3.312C-0.317,3.638 -0.128,3.898 0.065,4.178C1.813,6.722 2.134,6.761 4.249,4.462C5.179,3.45 6.269,2.994 7.617,3.072C8.04,3.096 8.353,2.795 8.364,2.342C8.379,1.702 8.345,1.79 8.91,1.829C10.896,1.964 12.107,3.416 13.26,4.724C14.126,5.706 15.146,6.504 15.981,7.5C16.25,7.821 16.895,8.039 16.626,8.526C16.338,9.047 16.295,9.921 15.305,9.874C15.66,10.535 16.656,9.772 16.786,10.667" style="fill-rule:nonzero;" fill="#fbaf00"/>
        </g>
    </g>
</svg>
