<svg xmlns="http://www.w3.org/2000/svg" width="100.936" height="438.752" viewBox="0 0 26.706 116.086"><path d="M7.315 115.515c-2.267-2.268.429-79.233 3.371-96.238l.626-3.614-4.534 5.135c-3.307 3.746-4.99 4.838-6.218 4.036-1.36-.887-.427-3.391 4.827-12.967C10.932 1.76 12.343 0 14.903 0c2.539 0 3.696 1.4 7.467 9.036 5.124 10.375 5.484 12.682 2.248 14.414-1.765.944-2.797.774-4.275-.704-1.071-1.071-2.11-1.748-2.308-1.503-.625.771-3.36 47.676-4.17 71.53-.74 21.831-.89 22.908-3.236 23.244-1.353.194-2.844-.032-3.314-.502z" fill="currentcolor"/></svg>
