<?xml version="1.0" ?><svg xmlns="http://www.w3.org/2000/svg" width="386.71707mm" height="417.97455mm" viewBox="0 0 386.71707 417.97455">
    <path d="m -4099.0225,-1509.0123 32.0662,-28.93 145.6903,0.2148 c 0,0 3.1032,-77.2661 4.2171,-80.4169 1.114,-3.1508 12.8901,-12.0303 15.6751,-10.3117 2.7849,1.7186 5.4106,8.3066 5.888,11.0278 0.4775,2.7211 -0.9548,15.0379 -0.9548,15.0379 l 142.0302,-1.8619 33.8166,24.2039 -38.1134,30.219 -137.3355,4.6546 3.3419,26.9965 79.7278,18.4752 16.1524,32.224 -23.3932,26.925 -74.7945,-15.5391 1.4322,56.0698 2.5462,136.2003 c 0,0 -0.8752,32.0809 -0.6365,36.0194 0.2387,3.9385 -22.1201,0.2147 -22.518,-5.514 -0.3978,-5.7287 -8.4343,-213.8961 -8.4343,-213.8961 l -1.0344,-32.7252 c 0,0 -129.2195,-1.7903 -132.4818,-1.9335 -3.2624,-0.1432 -42.8876,-27.1398 -42.8876,-27.1398 z" fill="#fff" paint-order="fill markers stroke" transform="translate(263.83316,164.94071) translate(3839.2251,1466.1609)"/>
    <path d="m -3893.2808,-1216.4792 c -0.3814,-1.8851 0.1213,-6.1373 1.1217,-9.4497 2.3965,-7.9486 10.6916,-24.3268 12.2837,-24.2531 0.6901,0.038 0.885,1.1016 0.4333,2.3771 -0.8521,2.4065 -7.6775,24.8039 -9.5129,31.2163 -1.3075,4.57 -3.4124,4.623 -4.3258,0.1111 z m -21.1468,-1.174 c -0.4703,-0.5157 -0.7881,-2.3791 -0.7068,-4.1405 0.08,-1.7619 -0.6157,-4.8755 -1.5483,-6.9193 -1.0055,-2.2016 -1.8926,-12.2317 -2.1776,-24.6174 -0.2632,-11.4956 -1.0912,-33.9622 -1.837,-49.9256 -0.7461,-15.9633 -1.6618,-42.9803 -2.0357,-60.0377 -0.3738,-17.0578 -0.9006,-31.9335 -1.1707,-33.0571 -0.9654,-4.0176 -2.0855,-60.222 -1.3837,-69.4372 0.6976,-9.1593 0.6339,-9.3943 -2.5236,-9.3169 -1.7816,0.046 -32.7869,-1.2153 -68.9005,-2.7975 l -55.1489,-1.506 c -9.6844,-0.2644 -5.1061,0.8499 -22.5303,-8.2334 -11.9244,-6.8095 -26.9113,-17.2208 -28.4478,-19.7622 -1.52,-2.5148 4.8885,-9.9898 17.8775,-20.8522 l 8.5536,-7.1531 c 5.7894,-5.8464 10.3118,-4.0476 18.5112,-4.4689 38.711,-1.9896 88.4657,-2.8306 114.7771,-1.94 l 18.4927,0.6259 0.6411,-9.3996 c 0.351,-5.17 0.9593,-19.6901 1.3465,-32.2671 0.7007,-22.7229 2.8528,-36.6239 6.341,-40.9593 2.3081,-2.8684 10.7958,-7.4052 13.6214,-7.2808 5.0583,0.2212 8.4252,7.1404 10.0905,20.7317 0.6821,5.5651 -3.188,5.2428 33.6643,2.8028 27.7025,-1.8347 65.6121,-2.475 94.4531,-2.2931 7.6091,-1.1209 11.6354,2.3352 17.8435,6.2394 14.0311,8.8238 28.4387,19.7397 29.742,22.5348 1.7943,3.846 -0.5957,7.3014 -11.2888,16.3216 -12.7026,10.7161 -21.1304,15.7605 -29.802,17.8386 -12.571,3.013 -73.1447,6.0274 -114.4521,5.6959 -11.6647,-0.092 -21.2338,0.3838 -21.2651,1.0604 -0.038,0.6771 0.4413,5.4511 1.0502,10.6093 1.2641,10.7073 -0.061,9.8939 20.1149,12.3626 14.1727,1.734 49.112,9.1933 56.9849,12.1659 7.2586,2.7402 10.0855,6.0774 18.1666,21.4458 6.9596,13.2362 6.7964,16.0741 -1.5266,26.4986 -5.4395,6.8139 -15.9637,17.6573 -18.5129,19.0744 -0.782,0.4348 -16.0107,-2.2669 -33.8417,-6.0037 -17.8305,-3.7373 -34.4043,-7.1474 -36.8302,-7.578 l -4.4108,-0.7835 0.439,6.8693 c 0.2403,3.7781 0.918,22.9548 1.5039,42.6154 0.5863,19.6603 1.5163,45.7687 2.0671,58.0185 1.3217,29.3872 0.1793,98.544 -1.7248,104.375 -1.0184,3.1198 -2.0431,4.2134 -3.3936,3.6222 -1.5499,-0.6786 -2.0053,0.5858 -2.2879,6.3527 -0.3814,7.7393 -1.9926,11.3969 -4.3229,9.8037 -1.9471,-1.3316 -1.4311,-9.2289 1.21,-18.5076 1.7191,-6.0389 2.3523,-16.3552 3.093,-50.3715 0.5123,-23.5276 0.34,-43.6484 0.3014,-44.8269 -0.2402,-7.3298 -2.0758,-61.6369 -1.1112,-89.2581 l 1.02,-29.2153 -3.5207,-0.9483 c -8.0524,-2.169 -9.3569,-8.1591 -9.6239,-44.1834 -0.1641,-22.4158 -0.042,-22.8448 6.5542,-22.5763 3.336,0.1373 3.5999,-0.1526 2.4194,-2.6247 -2.9786,-6.2422 -2.2528,-84.6506 0.8884,-95.9148 1.2042,-4.3186 1.0711,-5.0017 -0.9933,-5.0971 -3.2868,-0.1526 -13.8369,5.5555 -14.9434,8.0845 -0.4986,1.1382 -0.5402,6.4562 -0.092,11.818 0.4471,5.3618 -0.2822,39.4006 -1.6211,75.642 -1.3384,36.2412 -2.0322,71.6704 -1.5417,78.7315 2.3248,33.4567 4.3857,81.68 4.5856,107.3022 0.1213,15.5641 0.4402,35.8857 0.7082,45.1592 0.7744,26.793 2.1552,63.3369 2.7407,72.5306 0.4437,6.9638 0.1907,8.4277 -1.4457,8.3522 -1.0913,-0.05 -2.3686,-0.5134 -2.8386,-1.0291 z m 105.9928,-243.8614 c 6.0363,-6.463 5.3164,-7.8587 2.0419,-15.4353 -3.2045,-7.4146 -8.9986,-19.4592 -9.6524,-20.3141 -0.6538,-0.8548 -6.0873,-2.2108 -12.0747,-3.0129 -5.987,-0.8018 -19.7034,-3.5729 -30.4801,-6.1579 -22.7125,-5.4472 -42.7329,-9.4397 -43.5182,-8.6784 -0.3014,0.2899 -0.1832,3.5771 0.2631,7.3022 0.4448,3.7247 0.5901,12.2807 0.3243,19.0126 -0.267,6.7323 -0.2709,15.9321 0,20.4446 0.1075,6.8636 -0.7119,8.0304 5.8168,8.9836 12.7198,1.8571 60.1973,10.225 66.4429,12.0723 4.806,2.1381 6.347,0.9785 9.4949,-2.0512 4.233,-4.0793 9.0915,-9.1698 11.3415,-12.1655 z m -17.027,5.1038 c -0.407,-0.7319 0.9872,-4.3812 3.0981,-8.1092 l 3.838,-6.7789 -2.4862,-6.8594 c -2.8795,-7.9461 -3.0184,-10.5661 -0.5528,-10.4524 2.8898,0.1334 10.9793,12.775 10.8705,16.9875 -0.081,3.0663 -10.2449,16.7176 -12.3759,16.6192 -0.9086,-0.042 -1.9847,-0.6752 -2.3917,-1.4068 z m -212.2111,-28.7399 c 8.5352,-0.3357 34.9032,-0.3167 58.5944,0.046 23.6913,0.3624 45.7237,0.3956 48.9609,0.073 5.7494,-0.5726 5.8707,-0.6844 5.2303,-4.8214 -0.3624,-2.329 -0.6343,-12.9428 -0.6076,-23.586 l 0.05,-19.3506 -11.5823,0.2593 c -6.3703,0.1413 -28.547,0.08 -49.2813,-0.1373 -20.7345,-0.2173 -43.1677,-0.1149 -49.8516,0.2327 -6.6839,0.3471 -16.5581,0.1411 -21.9424,-0.4565 -8.1173,-1.7876 -9.7639,-1.1143 -15.0252,4.5527 -6.4519,6.9502 -14.0138,13.6467 -18.3065,16.2118 -3.1721,1.8954 -2.8753,2.1398 14.6666,12.0912 9.8471,5.586 18.5693,11.34 19.3825,12.7871 3.7245,2.5365 4.8011,2.1439 19.7122,2.098 z m -32.6844,-15.9006 c -5.1231,-3.7906 -9.5619,-7.6226 -9.8648,-8.5154 -0.7903,-2.3314 4.2191,-7.6666 11.3828,-12.1229 9.2655,-5.7634 10.4941,-3.4996 2.0038,3.6919 l -7.3957,6.2644 9.5298,5.8619 c 6.8368,4.2057 9.4946,6.6121 9.4069,8.517 -0.2213,4.7569 -5.3344,3.502 -15.0628,-3.6969 z m 204.9505,-50.0892 c 13.2835,-0.8055 29.0078,-1.6058 34.9429,-1.7775 5.9348,-0.1716 21.4175,-0.7162 34.4054,-1.2103 12.9883,-0.4936 27.0494,-0.7422 31.2472,-0.5527 6.77,0.3052 8.0048,-0.073 10.9315,-3.3569 1.8149,-2.0366 15.402,-12.0423 22.1026,-16.763 8.2976,-5.9867 5.2975,-5.3264 0.7639,-8.6303 -11.6913,-8.5048 -23.7282,-16.6695 -27.1855,-16.2186 -2.2687,0.2976 -18.0682,0.55 -35.1092,0.5641 -17.0405,0 -40.0968,0.4764 -51.2355,1.0272 -11.1385,0.5513 -26.5409,0.7183 -34.2276,0.3739 l -13.9758,-0.6298 0.3941,10.3243 c 0.2173,5.6784 0.1072,16.5844 -0.248,24.2356 -0.5031,10.8868 -0.244,13.9297 1.2,13.9963 1.0135,0.046 12.711,-0.5744 25.9944,-1.3804 z m 108.1474,-17.5468 c -0.5122,-1.5451 1.049,-3.7865 4.9422,-7.0958 l 5.6911,-4.8374 -5.0743,-3.7055 c -4.7118,-3.441 -6.7029,-7.784 -3.5007,-7.636 2.7077,0.1264 14.5624,7.5479 15.2197,9.5294 0.8005,2.4141 -11.7075,16.2269 -14.5739,16.0946 -1.0753,-0.05 -2.2917,-1.1069 -2.7041,-2.3493 z m -164.9446,345.1745 c -0.2899,-0.5692 -1.6744,-5.1727 -3.0796,-10.2305 -1.4049,-5.0578 -3.0962,-9.5664 -3.7587,-10.0191 -0.6622,-0.4528 -1.1588,-1.8005 -1.1035,-2.9947 0.2098,-4.5242 6.4368,4.3388 9.4386,13.433 1.6459,4.9862 2.9722,9.5065 2.9474,10.0451 -0.061,1.2908 -3.7698,1.0959 -4.4442,-0.2327 z m 14.482,-1.8515 c -0.9207,-4.5475 1.5467,-24.7914 3.206,-26.3041 1.4624,-1.3332 2.3725,26.5039 0.9353,28.6061 -1.6269,2.3789 -3.3925,1.3975 -4.1413,-2.302 z" transform="translate(263.83316,164.94071) translate(3839.2251,1466.1609)"/>
</svg>