<svg width="209" height="208" viewBox="0 0 209 208" fill="none" xmlns="http://www.w3.org/2000/svg">
<path d="M174.11 24.9413L171.63 22.8312C170.79 22.1512 169.92 21.5012 169.06 20.8312C167.36 19.4812 165.54 18.3112 163.77 17.0812C160.163 14.7259 156.409 12.605 152.53 10.7314C144.835 7.02017 136.724 4.24372 128.37 2.46137C111.728 -1.06849 94.5035 -0.798657 77.98 3.25116C69.6789 5.27446 61.6536 8.2965 54.0798 12.2512C50.2683 14.2672 46.5937 16.5322 43.0798 19.0312C41.2898 20.2312 39.6199 21.6214 37.9099 22.9514C37.0599 23.6214 36.2599 24.3612 35.4399 25.0612C34.6199 25.7612 33.7898 26.4814 33.0298 27.2314C20.5499 38.9978 11.1045 53.6106 5.5 69.8212C4.11552 73.8637 2.97003 77.9842 2.06982 82.1613L0.97998 88.5412L0.719971 90.1413C0.649971 90.6713 0.619824 91.2112 0.569824 91.7512L0.299805 94.9614L0.0498047 98.1713C-0.0401953 99.2413 0.05 100.311 4.39013e-09 101.391C4.39013e-09 103.531 -0.000175774 105.671 0.0698242 107.801L0.609863 114.181C0.659863 114.711 0.68001 115.251 0.76001 115.781L1.01001 117.351L1.52979 120.501L2.05981 123.651C2.27981 124.651 2.54979 125.711 2.78979 126.741L3.5498 129.831C3.8198 130.831 4.01988 131.911 4.37988 132.901L6.37988 138.901C6.68988 139.901 7.12002 140.901 7.52002 141.901L8.72998 144.841C12.0174 152.649 16.2274 160.034 21.27 166.841C31.3513 180.744 44.831 191.827 60.4199 199.031C75.9763 205.94 93.0109 208.858 109.98 207.521C121.425 206.682 132.673 204.088 143.33 199.831C154.079 195.541 164.021 189.454 172.73 181.831C181.453 174.118 188.713 164.893 194.16 154.601C197.081 149.096 199.511 143.344 201.42 137.411C202.42 135.191 203.27 132.921 204.03 130.601C204.34 129.671 204.72 128.761 204.98 127.811L205.74 124.951L206.49 122.081C206.61 121.601 206.75 121.081 206.85 120.641L207.12 119.191C207.44 117.261 207.86 115.331 208.12 113.381C208.38 111.431 208.54 109.491 208.72 107.541C209.579 92.0515 206.91 76.5691 200.914 62.2609C194.919 47.9527 185.754 35.1923 174.11 24.9413ZM104.47 115.021C104.67 114.831 104.83 114.581 105.01 114.411C105.18 114.241 105.341 114.061 105.49 113.871C105.776 113.559 106.037 113.225 106.27 112.871C106.487 112.588 106.674 112.283 106.83 111.961C106.977 111.674 107.104 111.376 107.21 111.071C107.42 110.461 107.55 109.831 107.77 109.211C107.969 108.521 108.418 107.929 109.03 107.551C109.433 107.291 109.858 107.067 110.3 106.881L110.86 106.641C111.59 107.388 112.222 108.225 112.74 109.131C113.593 110.557 114.078 112.172 114.15 113.831C114.15 114.011 114.15 114.191 114.15 114.361C114.162 114.508 114.162 114.655 114.15 114.801C114.145 114.95 114.122 115.098 114.08 115.241C114.056 115.397 114.02 115.551 113.97 115.701C113.799 116.357 113.533 116.983 113.18 117.561C112.567 118.656 111.695 119.583 110.64 120.261C110.301 120.471 109.934 120.633 109.55 120.741C109.35 120.821 109.32 120.741 109.23 120.861C109.175 120.842 109.115 120.842 109.06 120.861C109 120.861 108.92 120.861 108.84 120.861C108.398 120.849 107.96 120.771 107.54 120.631C107.033 120.434 106.545 120.193 106.08 119.911C105.687 119.67 105.316 119.395 104.97 119.091C104.674 118.889 104.403 118.654 104.16 118.391C103.996 118.307 103.855 118.183 103.751 118.031C103.646 117.88 103.58 117.704 103.56 117.521C103.564 116.819 103.75 116.13 104.1 115.521C104.207 115.343 104.331 115.176 104.47 115.021ZM82.6799 120.021C82.9464 123.894 84.1548 127.642 86.2 130.941C88.2345 134.227 90.9654 137.026 94.2 139.141C95.6316 140.092 97.1441 140.915 98.72 141.601C97.3215 141.374 95.9574 140.971 94.6599 140.401C89.4895 138.03 85.3492 133.872 83 128.691C80.6 123.521 80.4399 117.911 82.45 113.691C82.8858 112.761 83.4081 111.874 84.01 111.041L83.8198 111.551C83.4911 112.454 83.2435 113.384 83.0798 114.331C82.9898 114.821 82.8998 115.331 82.8198 115.801C82.7398 116.271 82.74 116.731 82.71 117.211C82.6272 118.142 82.6071 119.078 82.6499 120.011L82.6799 120.021ZM95.3499 62.1313C81.0597 62.4702 67.3084 67.6533 56.3499 76.8312C53.6998 79.0816 51.2567 81.5648 49.0498 84.2512C49.6981 82.9669 50.4264 81.7245 51.23 80.5312C53.4241 77.3356 56.1029 74.5017 59.1699 72.1313C65.7513 67.1149 73.4761 63.8125 81.6499 62.5212C85.7897 61.8392 89.9958 61.6514 94.1799 61.9614C94.7899 62.0314 95.4 62.0713 96.01 62.1313C95.76 62.1213 95.5599 62.1113 95.3499 62.1213V62.1313ZM54.72 44.1313L56.51 42.7412C57.67 41.7412 58.9399 41.0013 60.1199 40.1413C64.7334 37.0839 69.674 34.5515 74.8499 32.5913C79.1501 30.9542 83.5831 29.6895 88.0999 28.8112C90.0999 28.3912 91.8998 28.1713 93.5398 27.9113C95.1798 27.6513 96.6599 27.5414 97.9399 27.4614C99.8599 27.2914 101.7 27.1412 103.43 27.0312C106.97 27.2912 110.66 27.6812 114.29 28.2612C119.077 29.0013 123.797 30.1318 128.4 31.6413C141.438 35.9351 153.207 43.3982 162.65 53.3613C164.921 55.8024 167.032 58.3878 168.97 61.1013C170.849 63.8146 172.549 66.6472 174.06 69.5812C174.43 70.3112 174.79 71.0612 175.14 71.8112C178.878 80.2976 181.001 89.4067 181.4 98.6713C181.57 101.021 181.4 103.351 181.35 105.671C181.26 106.831 181.11 107.991 181.01 109.141C180.902 110.296 180.731 111.445 180.5 112.581L180.2 114.301C180.15 114.581 180.11 114.871 180.05 115.151L179.82 115.981L178.95 119.311L178.74 120.151C178.66 120.421 178.55 120.691 178.45 120.961L177.87 122.591L177.29 124.231C177.118 124.786 176.908 125.327 176.66 125.851C175.75 128.001 174.725 130.101 173.59 132.141C173.01 133.141 172.49 134.211 171.86 135.211L169.86 138.161C169.52 138.641 169.22 139.161 168.86 139.631L167.75 141.021L165.98 143.291C167.989 138.411 169.48 133.333 170.43 128.141C171.845 120.428 172.084 112.546 171.14 104.761C169.31 88.9955 162.459 74.2361 151.6 62.6613C141.079 51.4431 127.683 43.3253 112.87 39.1913C105.52 37.1114 97.9179 36.0613 90.2798 36.0712C89.2798 36.0712 88.3599 36.0713 87.3999 36.1213L84.52 36.2712C82.61 36.4812 80.6898 36.6013 78.7998 36.9313L75.97 37.4013C75.03 37.5713 74.0999 37.7912 73.1599 37.9912C71.2799 38.3712 69.4499 38.9314 67.5999 39.4413C62.568 40.9664 57.7058 43.0036 53.0898 45.5212L54.72 44.1313Z" fill="currentColor"/>
</svg>
