<svg width="595" height="53" viewBox="0 0 595 53" fill="none" xmlns="http://www.w3.org/2000/svg">
<path d="M592.799 43.7235C592.317 43.1866 591.722 42.7605 591.055 42.475C590.787 42.3556 590.513 42.2514 590.234 42.1628L589.652 42.0005L589.172 41.9006C588.565 41.7758 588.085 41.7134 587.592 41.6509C586.632 41.5261 585.747 41.4511 584.862 41.3887C583.105 41.2763 581.399 41.2015 579.705 41.1515C576.318 41.0516 572.969 41.0142 569.594 40.9892C560.747 40.9892 552.026 40.9892 543.28 41.0516L543.735 40.8519C544.01 40.7122 544.273 40.5493 544.519 40.3649C545.043 40.0085 545.486 39.5479 545.819 39.0125C546.152 38.4771 546.368 37.8788 546.453 37.2561C546.627 36.2903 546.483 35.2948 546.041 34.416C545.6 33.5372 544.885 32.8216 544.001 32.3743C543.648 32.1745 543.27 32.0233 542.876 31.9249C542.703 31.87 542.525 31.8283 542.345 31.8C542.017 31.7376 541.89 31.7251 541.663 31.7002L540.765 31.6253C539.716 31.5628 538.844 31.5628 537.959 31.5628H535.786C536.036 31.4595 536.281 31.3428 536.519 31.2132L536.961 30.9635C537.175 30.8325 537.381 30.6908 537.58 30.539C538.002 30.2163 538.372 29.8334 538.68 29.4029C539.552 28.841 539.944 25.932 538.882 24.1715C547.653 24.0841 556.412 23.9967 565.158 23.8469C569.506 23.8469 573.803 23.7595 578.277 23.6222L580.021 23.5348C580.337 23.5348 580.641 23.5348 581.02 23.4474L581.639 23.36L582.107 23.2601C582.42 23.1879 582.725 23.0833 583.017 22.948C582.65 23.4099 585.734 21.637 585.254 18.6905C583.788 15.3694 583.687 16.6429 583.194 15.9562C582.802 15.7564 582.802 15.769 582.574 15.6691L582.183 15.5317C581.715 15.3819 581.424 15.3195 581.096 15.2321C580.464 15.0823 579.908 14.9699 579.339 14.8575C578.77 14.7451 578.075 14.6577 577.393 14.5579L575.712 14.4455C574.561 14.3581 573.449 14.3082 572.337 14.2457C569.392 14.1334 566.473 14.0709 563.49 14.021L568.179 13.9336L578.795 13.8337C579.718 13.8337 580.628 13.8337 581.601 13.7338C582.082 13.7338 582.562 13.6714 583.118 13.609C583.771 13.5465 584.418 13.4296 585.052 13.2594C585.232 13.2125 585.409 13.1541 585.582 13.0846C585.903 12.9725 586.212 12.8303 586.505 12.6601C586.227 13.8088 590.297 9.46389 587.137 6.57979C586.64 6.15128 586.046 5.8472 585.406 5.69331C585.036 5.5956 584.66 5.52468 584.281 5.48108L583.459 5.38118C582.448 5.29378 581.525 5.25632 580.603 5.21886C576.95 5.1065 573.411 5.09403 569.86 5.08154H548.702H543.255C545.694 4.68202 545.201 4.25752 549.815 3.83302C590.587 0.549388 558.396 -0.424481 436.571 0.224753C410.029 0.362091 381.946 0.224753 354.861 0.224753L239.267 0.149844H177.336H148.823C139.749 0.149844 131.192 0.149864 123.23 0.287202L94.0847 0.749151L90.3941 0.811563C89.7369 0.811563 89.1303 0.873995 88.2835 0.973877L87.8538 1.03633L87.462 1.12369L87.0575 1.2361C86.5519 1.54823 86.8932 1.01134 85.2881 2.38472C83.683 3.7581 84.239 6.13032 85.0985 7.51619H80.043H66.1403C61.5524 7.51619 56.9519 7.51619 52.3261 7.51619C47.7003 7.51619 43.0618 7.39131 38.3096 7.45374C37.1216 7.45374 35.9209 7.45376 34.6823 7.55364C33.332 7.59868 31.9856 7.72375 30.6505 7.92819L30.0312 8.04055L29.2855 8.21536C28.9569 8.32773 28.6662 8.41511 28.2618 8.5899C27.8573 8.7647 27.731 8.83962 27.4782 8.98944C27.0477 9.2607 26.6529 9.5836 26.3028 9.95079C25.7511 10.5038 25.3469 11.1833 25.1263 11.9285C24.9057 12.6737 24.8757 13.4613 25.0389 14.2208C25.1758 14.9361 25.4741 15.6118 25.9118 16.1976C26.3494 16.7834 26.915 17.2642 27.5667 17.6043C27.9002 17.7727 28.2467 17.9147 28.603 18.0288L29.2097 18.1786C29.8543 18.3159 30.3345 18.5157 30.7137 18.5532C32.1925 18.678 32.698 18.703 33.9113 18.7404H18.7448C15.8631 18.7404 12.9941 18.7404 10.0493 18.8528L7.78692 18.9402C7.00332 19.0026 6.27027 19.0401 5.25916 19.1899L4.84208 19.2648C4.66748 19.2933 4.49452 19.3308 4.3239 19.3772C4.04394 19.4498 3.76942 19.5416 3.50237 19.6519C3.22432 20.0015 2.07419 19.6519 0.974609 22.7857C1.101 26.5312 2.69349 26.5312 2.87043 26.8933C3.12307 27.0571 3.38947 27.1991 3.66668 27.3178C3.83013 27.3963 3.99908 27.4631 4.17223 27.5176L4.57668 27.6549C5.40669 27.9033 6.25072 28.1034 7.10444 28.2542C9.30697 28.6671 11.5376 28.9175 13.7777 29.0033C13.4443 29.4977 13.1726 30.0301 12.9688 30.589C12.7873 31.4829 12.914 32.4111 13.3286 33.2257C13.7432 34.0403 14.4219 34.6944 15.2565 35.0837C15.5841 35.2361 15.9273 35.3533 16.2802 35.4332C16.8485 35.5451 17.4222 35.6285 17.9991 35.683H18.4794C20.0845 35.8078 21.5506 35.8328 23.0293 35.8702H27.8573H37.4123L75.5815 36.2073L126.465 36.6818L91.7339 36.8815L72.624 36.9814C66.2288 37.0688 59.9852 36.9814 53.6658 36.7692C47.3464 36.5569 40.9385 36.3571 34.3031 36.5944C32.5318 36.6464 30.7665 36.8217 29.0201 37.1188L28.2871 37.2561C28.0217 37.3185 27.7057 37.4309 27.415 37.5183L26.5429 37.8179C26.3028 37.9303 26.05 38.0427 25.7719 38.1925C25.3561 38.4015 24.966 38.6571 24.6092 38.9541C23.997 39.4455 23.5552 40.1132 23.3453 40.8643C23.1368 41.6188 23.1654 42.418 23.4273 43.1561C23.6891 43.8941 24.1718 44.5361 24.8114 44.997C25.1935 45.2719 25.6212 45.4789 26.0753 45.6087C26.2937 45.684 26.5176 45.7425 26.7451 45.7836C27.0495 45.8509 27.3576 45.9009 27.6678 45.9334C29.4082 46.0708 31.1551 46.1125 32.9002 46.0582L37.7409 45.9334C44.1361 45.7086 50.4555 45.4464 56.6991 45.4589L75.7837 45.5838L114.016 45.8335H119.83L119.691 45.9708C119.193 46.6158 118.906 47.3955 118.869 48.2057C118.832 48.7994 118.95 49.3926 119.211 49.9287C119.401 50.3474 119.662 50.7315 119.982 51.0648L120.31 51.3645C120.691 51.6696 121.117 51.9139 121.574 52.0886C121.754 52.1737 121.939 52.2446 122.13 52.3009L122.434 52.3758L123.04 52.5131L123.495 52.5755C124.114 52.6754 124.569 52.6879 125.075 52.7254C126.036 52.7254 126.933 52.7254 127.805 52.7254C131.306 52.7254 134.592 52.6255 137.84 52.6005L175.087 52.8128C198.494 52.9002 218.868 52.8127 235.69 52.6629C254.269 52.4507 268.551 52.0637 277.764 51.5268H291.402L450.79 51.1772C477.243 51.4144 503.873 50.4531 530.54 51.1772C543.849 51.5143 557.082 51.4019 570.492 51.1772C573.854 51.1148 577.228 51.0149 580.679 50.7901C582.41 50.6778 584.142 50.528 585.987 50.2658C587.001 50.1262 588.005 49.926 588.995 49.6665C589.91 49.5432 590.808 49.3213 591.674 49.0047C591.963 48.853 592.237 48.6777 592.496 48.4804C592.892 48.2126 593.242 47.8838 593.532 47.5065C593.744 47.2565 593.884 46.9545 593.937 46.6325C594.265 46.7324 593.911 44.5975 592.799 43.7235ZM540.02 33.2858C539.969 33.1734 539.969 33.1734 540.02 33.2858V33.2858ZM123.28 47.9185L123.394 47.7313L123.293 47.906L123.28 47.9185Z" fill="#4633FF"/>
</svg>
